<svg width="120" height="120" viewBox="0 0 24 24" fill="none" xmlns="http://www.w3.org/2000/svg">
    <path d="M11 2H13V12H11V2Z" fill="#A0A0A0"/>
    <path d="M14.5 4C14.5 4 17 6 17 9C17 11 16 12 16 12H18C18 12 19 10 19 8C19 5 16 2 16 2L14.5 4Z" fill="#A0A0A0"/>
    <path d="M9.5 4C9.5 4 7 6 7 9C7 11 8 12 8 12H6C6 12 5 10 5 8C5 5 8 2 8 2L9.5 4Z" fill="#A0A0A0"/>
    <path d="M14 13H10V15H14V13Z" fill="#A0A0A0"/>
    <path d="M4 16H20V18H4V16Z" fill="#A0A0A0"/>
    <path d="M17 13C17 13 20 14 20 16H18C18 15 17 14.5 17 14.5V13Z" fill="#A0A0A0"/>
    <path d="M7 13C7 13 4 14 4 16H6C6 15 7 14.5 7 14.5V13Z" fill="#A0A0A0"/>
</svg>